<svg id="Layer_1" data-name="Layer 1" xmlns="http://www.w3.org/2000/svg" viewBox="0 0 922.73 960.51"><defs><style>.cls-1{fill:none;stroke:#40c7cc;stroke-miterlimit:10;stroke-width:21px;}</style></defs><title>02-icon-stroke</title><g id="_Group_" data-name="&lt;Group&gt;"><path id="_Path_" data-name="&lt;Path&gt;" class="cls-1" d="M512,965.76c-2.72-.68-5.46-1.3-8.15-2-28.84-8-47.15-34.19-45.22-64.77,1.71-27.08,24.09-50.92,51.93-55.28a42.64,42.64,0,0,1,6.85-.61c24.15.11,48.4-.95,72.43.82,21.81,1.61,37.56,14.47,47.4,34,1.35,2.68,2.71,3.65,5.72,3.65,44-.11,88,0,132-.1,59.3-.15,109.6-42.77,119.17-100.91a102.24,102.24,0,0,0,1.49-15.7c.18-17.27.07-34.54.07-51.75-3.87,1.61-7.63,3.62-11.64,4.71-3.19.85-6.68.77-10,.74-14.7-.13-29.45.32-44.1-.74-31.4-2.28-59.13-27.52-65.12-58.56a88.12,88.12,0,0,1-1.62-16.45q-.17-88.68-.06-177.36c0-42.41,33-75.38,75.39-75.52q20-.06,40.09,0c14.2,0,23.76,9.66,23.85,23.92,0,4.83,0,9.66,0,14.76h11.32c-.31-6.64-.43-13.32-1-20-2.55-32.52-8.53-64.42-20.19-94.92Q824.19,134.58,639.2,83.3c-29.1-8-59-11.14-89.24-11s-60.48-.49-90.7.2C388,74.07,322.63,94.86,263.91,135.2Q153.48,211,117.21,340.4c-7.68,27.38-11.45,55.37-12.58,83.75,0,1.44,0,2.89,0,4.53h11.21c0-4.81.24-9.51,0-14.17-.89-14.7,11.41-25.12,24.46-24.69,13.89.46,27.8,0,41.71.14,36.33.25,68.11,28.66,72.46,64.76a94.69,94.69,0,0,1,.73,11.29q.06,88.28,0,176.55c0,38.06-25.79,68.79-63.36,75-7.52,1.24-15.33.9-23,1-9.31.15-18.63-.14-27.94.07-15.65.35-26-11.53-25.09-25,.32-4.53,0-9.11,0-14.22H110.7c-10.66-.1-21.35.23-32-.44-11.59-.73-20.28-10.67-20.28-22.31,0-77.34-.84-154.7.26-232,1-73.7,21.93-142.16,61.19-204.57q81-128.8,226.24-175.38A381.74,381.74,0,0,1,432,27.81c5.08-.41,10.15-1,15.22-1.57H571.1c5.07.53,10.14,1.16,15.22,1.57A375,375,0,0,1,672.1,44.73Q837.77,98.64,917.21,253.8c23.43,45.81,36.8,94.68,41.11,146,.4,4.8,1,9.6,1.54,14.4v247c-2.65,7.51-6.83,13.8-14.69,16.55-2.71,1-3.37,2.24-3.36,4.92.11,21.32.22,42.63,0,63.95-.12,11.58-.11,23.25-1.48,34.71-5.1,42.69-24.44,78.08-56.92,106-31.5,27.1-68.44,40.08-109.92,40.15q-65.18.11-130.33,0c-3,0-4.64.74-6.09,3.7-7.65,15.65-19.92,26.24-36.47,31.73-3.55,1.17-7.25,1.9-10.87,2.84Z" transform="translate(-47.64 -15.74)"/></g></svg>
