<svg id="Layer_1" data-name="Layer 1" xmlns="http://www.w3.org/2000/svg" viewBox="0 0 993.88 725.59"><defs><style>.cls-1{fill:none;stroke:#40c7cc;stroke-miterlimit:10;stroke-width:18px;}.cls-2{fill:#fff;}</style></defs><title>03-icon-stroke</title><g id="_Group_" data-name="&lt;Group&gt;"><path id="_Compound_Path_" data-name="&lt;Compound Path&gt;" class="cls-1" d="M773.75,838.29a71.2,71.2,0,0,1,.1-142.39c39,0,71.11,32.09,71.18,71.11a71.26,71.26,0,0,1-71.28,71.28Zm-535,0a71.24,71.24,0,0,1-71.37-71.19c0-39,32-71.1,71.09-71.2a71.2,71.2,0,0,1,.28,142.39ZM72.11,548.54c1.14-1.77,1.63-2.68,2.26-3.49q45.41-57.94,90.89-115.83a7.52,7.52,0,0,1,5-2.79c38.48-.16,77-.12,115.46-.11.68,0,1.37.13,2.47.24v122ZM987.22,240.05c-11-28.67-31.62-45.9-61.92-51.42a18.29,18.29,0,0,1-2.34-.77H287c.11,1.52.31,3,.31,4.56q0,87,0,174v5H282c-39.86,0-79.73.06-119.59-.09-4.16,0-6.82,1.2-9.4,4.5Q88.45,458.25,23.68,540.56a39.62,39.62,0,0,1-2.84,3V758.59h94.34c.36,8.21.11,16.18,1.15,24,6.46,48.13,32.06,82.31,76.42,101.8,10.28,4.53,21.89,6,32.89,9,.92.24,1.82.55,2.74.84h25.1c7.47-1.61,15-2.83,22.39-4.89,48.31-13.56,84.14-55.78,89.8-105.8.88-7.73.86-15.56,1.28-23.7H646.8c0,2.41,0,4.86,0,7.31-.34,53.26,31,99.73,80.75,118.8,9.27,3.55,19.35,5,29.06,7.41,1.07.27,2.12.58,3.18.87h25.1c7.33-1.58,14.77-2.78,22-4.81A124.86,124.86,0,0,0,897,782.94c.85-7.58.81-15.26,1.21-23.52h93.35V256.48c-1.42-5.49-2.35-11.17-4.36-16.43Z" transform="translate(-11.84 -177.57)"/><path id="_Path_" data-name="&lt;Path&gt;" class="cls-2" d="M935.1,177.57a17.91,17.91,0,0,0,2.41.8c31.18,5.67,52.42,23.41,63.72,52.91,2.08,5.42,3,11.26,4.49,16.91V177.57Z" transform="translate(-11.84 -177.57)"/></g></svg>
