<svg id="Layer_1" data-name="Layer 1" xmlns="http://www.w3.org/2000/svg" viewBox="0 0 733.39 970.9"><defs><style>.cls-1{fill:none;stroke:#40c7cc;stroke-miterlimit:10;stroke-width:21px;}.cls-2{fill:#40c7cc;}</style></defs><title>04-icon-stroke</title><g id="_Group_" data-name="&lt;Group&gt;"><path id="_Compound_Path_" data-name="&lt;Compound Path&gt;" class="cls-1" d="M495.64,666.06c153.87.77,280.05-123,283-276.93,3-159.86-125-286.5-278.74-288.44-158.67-2-285.59,125.91-286.65,280.63-1.08,157.53,126.72,285.31,282.43,284.74ZM430,26.46q13.65,5.5,27.3,11c20.31,8.22,40.81,7.77,61.42,1.29,8.94-2.81,17.71-6.26,26.76-8.61,10.53-2.72,21.49-4.78,31.18,2.4a114,114,0,0,1,15.2,13.87c12,12.9,25.71,22.74,43.38,26.46,11.57,2.44,23,4.09,35,3,8.58-.8,17.79-1.33,24.92,4.87a45.47,45.47,0,0,1,10.4,13c5,9.69,9.11,19.88,13.58,29.86,9.38,21,26,33.63,47.1,41.2,6.06,2.17,11.95,4.85,17.9,7.33,10.53,4.4,15,12.58,15.65,23.72,1.22,20.82,2.1,41.76,9.41,61.63a76.18,76.18,0,0,0,21.63,31c5.37,4.74,11.11,9.16,15.88,14.45a20.26,20.26,0,0,1,4.6,10.81c1,9.24-2.88,17.52-6.53,25.8-3.72,8.46-7.29,17-10.34,25.72-5.1,14.62-3.46,29.25,1.52,43.53,3.41,9.78,7.06,19.52,11.33,28.95,5.21,11.49,2.57,20.91-5.87,29.49-7.07,7.19-14.21,14.33-20.95,21.83C809.3,501.39,805,516.89,802.33,532.7c-2.05,12.25-2.62,24.77-3.4,37.19-.68,10.76-7.1,16.87-15.84,21.51-12.4,6.6-24.89,13-37.09,20-18.28,10.43-29.44,26.33-34.5,46.68-2.3,9.25-7.64,16.79-14,23.68-4.51,4.91-10.71,4.54-16.52,4.8-17.73.76-35.33,2.17-52.53,7.07-11,3.12-20.24,8.88-28.56,16.41-7.08,6.42-14.22,12.78-21.08,19.43-7.13,6.93-15.9,7.19-24.47,5.38a234.43,234.43,0,0,1-31.9-9.23c-14.47-5.29-28.94-5.68-43.8-2.67-14.28,2.91-28,7.43-40.6,14.8-6.45,3.78-12.47,3.24-18-1.27-6.8-5.57-13.7-11.15-19.74-17.51-15.51-16.32-33.7-26.86-56.54-28.34-10.94-.72-21.9-2-32.84-2-13.11.07-20.64-6.85-26.3-17.57-6.76-12.79-14.13-25.25-20.9-38-7.7-14.54-20.66-22.38-35-28.8-9.09-4.09-18.12-8.34-27-12.88-8.59-4.4-11.88-12.41-12.72-21.42-.53-5.59.11-11.28-.1-16.91-1-27.77-8.14-53-29.29-72.84-6.11-5.72-11.45-12.34-16.67-18.91-4.28-5.39-5-11.51-2.58-18.27,5.05-14,9.61-28.1,14.45-42.15a51.78,51.78,0,0,0,.13-34.27c-3.62-10.73-7.72-21.3-11.55-32-2.71-7.58-4.45-15.24-3.42-23.48.76-6.08,5.38-9.34,8.66-13.53,9.58-12.23,19.72-24,29.22-36.34,6.6-8.56,9-19,10.07-29.45,1.1-11.3.45-22.77,1.16-34.12a68.11,68.11,0,0,1,3.3-16.7c.8-2.46,3.48-4.95,5.93-6.11,9.74-4.64,19.78-8.65,29.62-13.09,20.58-9.29,37.23-22.21,45.14-44.75,3.91-11.16,10.45-21.38,15.73-32.07,4.13-8.36,11.19-9.55,19.47-8.41,29.45,4.08,56.74-1.21,80.32-20.11,8.18-6.55,15.18-14.55,22.86-21.75,3.15-2.94,6.67-5.5,10-8.23ZM608,965.54C572.68,886.23,539.63,808,503.79,727.48c12.87,3.94,36.22,8.18,47.94,9.55,12.68,1.47,23.33,0,33.17-9,9.2-8.39,17.9-16.17,27.44-24.17,8.5-7.14,20.6-10.62,31.36-11.83,14.43-1.62,33.41-1.45,47.87-2.79,21.85-9.1,24.86-33,34.27-52.81,34.27,78.05,70.82,158.3,104.89,235.91-9.77-1.59-18.85-3.08-28-4.55q-40.83-6.57-81.68-13.12c-9.71-1.55-19.45-2.94-29.14-4.55-2.31-.38-3.87-.2-5.36,2L608,965.54ZM487.48,723.7,381.91,961.05c-1.32-1.78-2.24-2.94-3.08-4.15q-37.4-54-74.73-108.11c-1.8-2.62-3.42-3.66-6.85-3.1q-67.67,11-135.39,21.69l-2.71.38c33.74-76.86,67.24-153.18,101.07-230.22,2.68,4.92,4.86,9.23,7.33,13.37,4.79,8,9.2,16.37,14.77,23.83,5.94,8,15,11.82,24.61,13.17,8.7,1.21,17.58,1,26.35,1.81,12.7,1.15,25.84.61,37.45,7a77.73,77.73,0,0,1,14.81,10.85c9.6,8.81,18.15,18.68,29.19,26,12.65,8.37,25.27,9.61,38.66,2.23,9.6-5.3,19.52-9.83,30.34-12a16,16,0,0,1,2-.37,7.56,7.56,0,0,1,1.7.32Z" transform="translate(-128.56 -15.96)"/><path id="_Path_" data-name="&lt;Path&gt;" class="cls-2" d="M377.49,597.25c-.46-1.12-1.37-2.25-1.32-3.35a462.37,462.37,0,0,1,24.28-131.22c12.86-37.63,30.63-72.65,55.36-103.94,36.23-45.84,82.5-76.94,138.33-93.93,33.54-10.2,67.92-14.69,102.91-15,3.8,0,7.61.19,11.39-.07,3.32-.22,4.15,1.16,3.91,4.2-1.43,18.38-1.9,36.89-4.31,55.14a377,377,0,0,1-31.75,109.56c-16.29,35.15-38,66.5-66.24,93.12s-60.85,46.34-97.11,60.08c-40.84,15.5-83.32,22.6-126.77,24.69a22.82,22.82,0,0,0-3.6.75Z" transform="translate(-128.56 -15.96)"/><path id="_Path_2" data-name="&lt;Path&gt;" class="cls-2" d="M339.59,540c-2.55-5.28-5.27-10.48-7.64-15.84-18-41-29.7-83.51-31.52-128.44-2.57-63.36,16.23-118.89,61.33-164.39,25.31-25.54,55.46-44.07,88.12-58.76,30.55-13.73,62.4-23.48,95-31.07.53-.12,1.08-.14,2.26-.29.17,3.3.44,6.43.48,9.57.37,31.07-1.92,61.92-8.17,92.4a7,7,0,0,1-3.68,4.28C468,275.37,417,322,381.87,386c-21.33,38.9-33.34,80.82-38.4,124.8-1.1,9.59-1.91,19.21-2.86,28.83l-1,.28Z" transform="translate(-128.56 -15.96)"/></g></svg>
