<svg id="Layer_1" data-name="Layer 1" xmlns="http://www.w3.org/2000/svg" viewBox="0 0 997.29 975.33"><defs><style>.cls-1{fill:none;stroke:#40c7cc;stroke-miterlimit:10;stroke-width:18px;}.cls-2{fill:#40c7cc;}</style></defs><title>01-icon-stroke</title><path class="cls-1" d="M971.79,548.3C995.25,343.07,880,134,671.41,51.46,462.66-31.12,225.5,43.25,100,229.44-25.32,415.23-5.43,661.35,149.05,825c78.93,83.6,176.21,132.4,290.41,146.79,52.86,6.65,105.37,4,158.37-7.49-26.93-27.59-35.19-60.42-32.29-96.84C456.69,885,357.45,863.49,269.92,797S132.4,641.54,121.76,532c-19.35-199.22,120.91-376.72,316-407.32,95.58-15,185.22,3.44,265.49,57.66C817,259.25,871.89,368.56,873.79,505.25,898.6,505,917,515.43,928.11,538a4,4,0,0,0,2.95,2c14,.13,27.37,3.17,40.73,8.33Z" transform="translate(-9 -9)"/><path class="cls-2" d="M594.37,353.38H359.71c-11.09,0-15-2.91-17.5-13.61a66.86,66.86,0,0,1,.13-32.15c2.31-8.95,6.07-12.73,16.15-12.71q143.47.33,286.94.13c1.33,0,2.67,0,4,0,8.89.31,13.39,2.95,14.77,11.8,1.53,9.75,1.62,19.82,1.37,29.73-.37,14.64-6.78,27.64-12.48,40.78Q565.6,579,478.2,780.64c-4.54,10.48-12.74,14.86-23.16,15.15-13.12.38-26.26-.32-39.4-.62a14.14,14.14,0,0,1-3.39-.75c-9-2.5-11.28-6.5-7.63-15.1,5.51-13,11.44-25.85,17.2-38.76Q506.93,549.88,592,359.19c.74-1.64,1.36-3.33,2.36-5.81Z" transform="translate(-9 -9)"/><path class="cls-2" d="M682.27,569.49v44.6c-2.85,0-5.46,0-8.08,0-18.49.27-33.61,14.14-33.68,32.64q-.46,118.72,0,237.47c.07,17.32,13.6,30.64,30.87,32.34,2.15.21,4.32.31,6.49.31,82,0,164,.11,246-.15,6.46,0,13.53-1.21,19.25-4,12.38-6.08,18.33-16.86,18.31-30.83q-.07-51.75,0-103.49,0-64.74,0-129.48c0-17.54-10.94-31.14-27.57-34.26-4.51-.85-9.24-.56-14.55-.84V569.55c16.47-1.3,31.84,1.33,45.9,9.42,26.37,15.18,40.74,38.16,40.9,68.64.4,78.49.25,157,.09,235.47a78,78,0,0,1-77.7,78.21q-127.48.45-255,0c-41.91-.14-75.37-32.81-77.57-74.72-.1-1.82-.15-3.66-.15-5.49q0-115.74,0-231.47c0-35.16,20.31-64.36,52.32-75.79a82.44,82.44,0,0,1,34.19-4.33Z" transform="translate(-9 -9)"/><path class="cls-2" d="M748.39,577.62c0,4,0,8,0,12,0,7.07.23,13.65,4,20.47,6.59,11.85,1.87,27-9.15,35A29.31,29.31,0,0,1,700.5,606.9a21.75,21.75,0,0,0,2.62-9.68c.3-13.47-.08-27,.22-40.43a22.14,22.14,0,0,1,23-22c12.48.24,21.76,9.61,22,22.35.1,4.32,0,8.65,0,13v7.49Z" transform="translate(-9 -9)"/><path class="cls-2" d="M823.45,577.88c0,4.16.11,8.33,0,12.49-.22,6.82.56,13,4,19.48,6.42,12,2,27.11-9,35.16a29.13,29.13,0,0,1-42.57-37.9,24.34,24.34,0,0,0,2.88-10.63c.37-13.81-.11-27.64.36-41.44.39-11.4,10.4-20.2,22-20.23s21.38,8.72,22.15,20.11c.37,5.47.15,11,.19,16.47,0,2.16,0,4.33,0,6.49Z" transform="translate(-9 -9)"/><path class="cls-2" d="M898.45,577.59c0,4,0,8,0,12,0,7.07.24,13.65,4,20.48,6.58,11.83,1.86,27-9.15,35.06a29.08,29.08,0,0,1-36.42-1.75A29.41,29.41,0,0,1,851,606.93a22.88,22.88,0,0,0,2.81-10.14c.33-13.64,0-27.3.24-40.95A21.66,21.66,0,0,1,873.86,535a22.21,22.21,0,0,1,24,16.7,29.54,29.54,0,0,1,.55,6.45c.07,6.49,0,13,0,19.48Z" transform="translate(-9 -9)"/><path class="cls-2" d="M771.91,783.28a28.86,28.86,0,0,1,29-29.24,29.1,29.1,0,1,1-29,29.24Z" transform="translate(-9 -9)"/><path class="cls-2" d="M703.35,754.05a29.09,29.09,0,1,1-29,29.44,29.06,29.06,0,0,1,29-29.44Z" transform="translate(-9 -9)"/><path class="cls-2" d="M927.34,783.08a29.08,29.08,0,1,1-29.21-29,28.92,28.92,0,0,1,29.21,29Z" transform="translate(-9 -9)"/><path class="cls-2" d="M927.34,705.2a29.08,29.08,0,1,1-28.84-29.5,29.16,29.16,0,0,1,28.84,29.5Z" transform="translate(-9 -9)"/><path class="cls-2" d="M703.79,890.45a29.12,29.12,0,1,1,29-28.93,29.24,29.24,0,0,1-29,28.93Z" transform="translate(-9 -9)"/><path class="cls-2" d="M800.93,890.45a29.12,29.12,0,0,1-.2-58.24,29.12,29.12,0,1,1,.2,58.24Z" transform="translate(-9 -9)"/><path class="cls-2" d="M897.87,890.44A29.12,29.12,0,1,1,899,832.22c16,.25,28.65,13.6,28.35,30a28.83,28.83,0,0,1-29.46,28.26Z" transform="translate(-9 -9)"/></svg>
